<svg id="Layer_1" data-name="Layer 1" xmlns="http://www.w3.org/2000/svg" viewBox="0 0 90.02 113.4"><defs><style>.cls-1{fill:#231f20;}.cls-1,.cls-2,.cls-3,.cls-4{stroke:#231f20;stroke-miterlimit:10;}.cls-1,.cls-2,.cls-3{stroke-width:3px;}.cls-2{fill:#fff;}.cls-3{fill:#cb2026;}.cls-4{fill:none;stroke-linecap:round;stroke-width:2.5px;}</style></defs><title>logo</title><rect class="cls-1" x="3.93" y="10.07" width="84.58" height="101.82" rx="7.4"/><rect class="cls-2" x="1.5" y="7.64" width="84.58" height="101.82" rx="7.4"/><path class="cls-3" d="M105.75,20H36a7.4,7.4,0,0,0-7.41,7.4v11h84.59v-11A7.4,7.4,0,0,0,105.75,20Z" transform="translate(-27.07 -12.31)"/><path class="cls-4" d="M43.85,15.87a3.6,3.6,0,0,0-3-2.31c-2.16,0-3.91,2.87-3.91,6.4s1.75,6.39,3.91,6.39a3.6,3.6,0,0,0,3-2.31" transform="translate(-27.07 -12.31)"/><path class="cls-4" d="M58.94,15.87a3.63,3.63,0,0,0-3-2.31c-2.15,0-3.9,2.87-3.9,6.4s1.75,6.39,3.9,6.39a3.63,3.63,0,0,0,3-2.31" transform="translate(-27.07 -12.31)"/><path class="cls-4" d="M74,15.87a3.6,3.6,0,0,0-3-2.31c-2.16,0-3.91,2.87-3.91,6.4s1.75,6.39,3.91,6.39A3.6,3.6,0,0,0,74,24" transform="translate(-27.07 -12.31)"/><path class="cls-4" d="M89.11,15.87a3.63,3.63,0,0,0-3-2.31c-2.16,0-3.91,2.87-3.91,6.4s1.75,6.39,3.91,6.39a3.63,3.63,0,0,0,3-2.31" transform="translate(-27.07 -12.31)"/><path class="cls-4" d="M104.2,15.87a3.63,3.63,0,0,0-3-2.31c-2.16,0-3.9,2.87-3.9,6.4s1.74,6.39,3.9,6.39a3.63,3.63,0,0,0,3-2.31" transform="translate(-27.07 -12.31)"/><polygon class="cls-3" points="71.74 58.36 52.24 58.36 52.24 38.85 34.75 38.85 34.75 58.36 15.25 58.36 15.25 75.85 34.75 75.85 34.75 95.35 52.24 95.35 52.24 75.85 71.74 75.85 71.74 58.36"/></svg>